<svg xmlns="http://www.w3.org/2000/svg" height="40" viewBox="0 96 960 960" width="40"><path d="M0 816v-56.333q0-40.045 42.333-65.189 42.334-25.144 111.251-25.144 12.443 0 23.93.5 11.486.5 22.486 2.268-10 18.565-15 38.109-5 19.545-5 40.789v65H0Zm240 0v-65q0-32 17.5-58.5T307 646q32-20 76.5-30t96.5-10q53 0 97.5 10t76.5 30q32 20 49 46.5t17 58.5v65H240Zm540 0v-65q0-21.907-4.5-41.287-4.5-19.379-14.166-37.561 11-1.818 22.281-2.318 11.28-.5 23.052-.5 69 0 111.166 24.678Q960 718.691 960 759.667V816H780ZM153.045 636.001q-30.045 0-51.545-21.542T80 562.667q0-30.666 21.542-51.999 21.541-21.334 51.791-21.334 30.667 0 52 21.334 21.333 21.333 21.333 52.288 0 30.045-21.333 51.545t-52.288 21.5Zm653.333 0q-30.044 0-51.544-21.542-21.5-21.542-21.5-51.792 0-30.666 21.541-51.999 21.542-21.334 51.792-21.334 30.666 0 52 21.334Q880 532.001 880 562.956q0 30.045-21.333 51.545-21.334 21.5-52.289 21.5ZM480 576q-50 0-85-35t-35-85q0-51 35-85.5t85-34.5q51 0 85.5 34.5T600 456q0 50-34.5 85T480 576Z" fill="#aebac1"/></svg>